<svg width="33" height="31" viewBox="0 0 33 31" fill="none" xmlns="http://www.w3.org/2000/svg">
<path d="M24.3605 0.000727847C27.7897 0.0788295 30.9391 2.30439 32.2255 5.66477C33.8215 9.8362 32.678 14.6445 30.56 18.7645C28.028 23.6876 23.3566 27.2442 18.5663 30.3048C18.5663 30.3048 16.6999 31.2067 14.8849 30.0358C8.71284 26.0166 2.95067 20.715 1.32122 13.4676C0.0822716 7.95508 2.09689 1.0541 8.38508 0.0941824C11.5365 -0.387111 15.8007 1.94059 16.9355 4.01195C18.0417 1.94593 21.3179 0.0841694 24.0735 0.00139502C24.217 5.99445e-05 24.217 -0.000607224 24.3605 0.000727847ZM24.1302 2.67087C20.5416 2.77834 18.0243 6.55126 16.9355 9.60123C16.6225 8.72408 16.5704 8.62662 16.3768 8.19339C16.2346 7.87631 16.0824 7.56324 15.9189 7.25617C14.0712 3.78299 9.47316 0.680279 5.68757 4.25827C1.71907 8.00849 3.74905 15.9248 7.83703 20.6983C10.3904 23.6802 13.5872 26.058 16.9355 28.1774C21.3199 25.4018 25.7577 22.2357 28.0887 17.7338C30.5199 13.0377 31.9938 6.68743 27.3992 3.63546C26.99 3.36311 26.5461 3.14215 26.0815 2.98128C25.448 2.76166 25.0161 2.66019 24.1302 2.67087Z" fill="black"/>
</svg>
