<svg width="33" height="31" viewBox="0 0 33 31" fill="none" xmlns="http://www.w3.org/2000/svg">
<path fill-rule="evenodd" clip-rule="evenodd" d="M32.8701 28.2773L30.6077 30.4286L23.8189 23.9747L26.0813 21.8219L32.8701 28.2773ZM13.6701 21.3C8.37731 21.3 4.07013 17.2058 4.07013 12.1714C4.07013 7.13854 8.37731 3.04286 13.6701 3.04286C18.9629 3.04286 23.2701 7.13854 23.2701 12.1714C23.2701 17.2058 18.9629 21.3 13.6701 21.3ZM13.6701 0C6.60131 0 0.870117 5.44976 0.870117 12.1714C0.870117 18.8931 6.60131 24.3429 13.6701 24.3429C20.7389 24.3429 26.4701 18.8931 26.4701 12.1714C26.4701 5.44976 20.7389 0 13.6701 0Z" fill="black"/>
</svg>
