<svg width="24" height="29" viewBox="0 0 24 29" fill="none" xmlns="http://www.w3.org/2000/svg">
<path d="M19.0353 5.0452C18.0257 3.88772 17.4188 2.37847 17.4188 0.728516H16.1536C16.4794 2.53196 17.5529 4.07959 19.0353 5.0452Z" fill="#F5F5F6"/>
<path d="M7.32917 14.3694C5.13747 14.3694 3.35473 16.1537 3.35473 18.3471C3.35473 19.8757 4.22374 21.2058 5.4889 21.8708C5.01607 21.2186 4.73491 20.4193 4.73491 19.5494C4.73491 17.356 6.51765 15.5717 8.70939 15.5717C9.11833 15.5717 9.51445 15.6419 9.88511 15.757V10.9224C9.50165 10.8712 9.11192 10.8392 8.70939 10.8392C8.63907 10.8392 8.57517 10.8456 8.50488 10.8456V14.5547C8.12789 14.4396 7.7381 14.3694 7.32917 14.3694Z" fill="#F5F5F6"/>
<path d="M22.6198 7.1684V10.8456C20.1662 10.8456 17.8914 10.059 16.0383 8.7288V18.3535C16.0383 23.1563 12.1342 27.0702 7.32906 27.0702C5.47602 27.0702 3.7508 26.4818 2.33865 25.4905C3.92969 27.198 6.19806 28.2725 8.70928 28.2725C13.508 28.2725 17.4185 24.3649 17.4185 19.5558V9.9311C19.2715 11.2613 21.5462 12.0478 24 12.0478V7.31555C23.5207 7.31555 23.0606 7.26433 22.6198 7.1684Z" fill="#F5F5F6"/>
<path d="M16.0383 18.3535V8.7288C17.8914 10.059 20.1662 10.8456 22.6198 10.8456V7.1684C21.2013 6.86789 19.9554 6.10045 19.0353 5.0452C17.5529 4.07959 16.4856 2.53196 16.1469 0.728516H12.6837L12.6772 19.7028C12.6007 21.8261 10.8498 23.5337 8.7093 23.5337C7.38018 23.5337 6.21084 22.8749 5.48241 21.8773C4.21724 21.2058 3.34824 19.882 3.34824 18.3535C3.34824 16.16 5.13098 14.3757 7.32267 14.3757C7.73161 14.3757 8.12778 14.4461 8.49839 14.5612V10.852C3.79553 10.9543 0 14.817 0 19.5558C0 21.8452 0.888182 23.9302 2.33865 25.4905C3.7508 26.4818 5.47602 27.0702 7.32906 27.0702C12.1277 27.0702 16.0383 23.1563 16.0383 18.3535Z" fill="#F5F5F6"/>
</svg>
